<svg xmlns="http://www.w3.org/2000/svg" xmlns:xlink="http://www.w3.org/1999/xlink" id="Layer_1" data-name="Layer 1" width="738.769" height="271.674" viewBox="0 0 738.769 271.674"><defs><clipPath id="clippath"><path d="m66.565,102.072c0,16.281,13.195,29.476,29.457,29.476s29.471-13.195,29.471-29.476-13.189-29.457-29.471-29.457-29.457,13.195-29.457,29.457" style="fill: none; stroke-width: 0px;"></path></clipPath><linearGradient id="linear-gradient" x1="-48.823" y1="438.636" x2="-47.823" y2="438.636" gradientTransform="translate(25946.421 -2745.782) rotate(-90) scale(58.934 -58.934)" gradientUnits="userSpaceOnUse"><stop offset=".003" stop-color="#ef7d00"></stop><stop offset="1" stop-color="#ef7d00" stop-opacity=".8"></stop></linearGradient><clipPath id="clippath-1"><path d="m12.504,138.676c11.796,25.465,36.887,40.534,63.228,40.793-21.96-5.384-42.023-21.352-52.899-44.864-11.736-25.338-9.901-53.173,2.533-74.024C6.06,80.898,0,111.702,12.504,138.676" style="fill: none; stroke-width: 0px;"></path></clipPath><linearGradient id="linear-gradient-2" x1="-48.817" y1="439.995" x2="-47.816" y2="439.995" gradientTransform="translate(3411.62 30815.735) scale(69.764 -69.764)" gradientUnits="userSpaceOnUse"><stop offset="0" stop-color="#ef7d00"></stop><stop offset="1" stop-color="#ef7d00" stop-opacity=".8"></stop></linearGradient><clipPath id="clippath-2"><path d="m109.107,21.674c23.95,3.991,46.373,20.577,58.134,45.908,10.896,23.488,10.122,49.12.049,69.352,16.821-20.247,21.531-49.147,9.72-74.623-11.914-25.672-37.325-40.754-63.878-40.753-1.338,0-2.682.039-4.025.116" style="fill: none; stroke-width: 0px;"></path></clipPath><linearGradient id="linear-gradient-3" x1="-48.824" y1="439.91" x2="-47.824" y2="439.91" gradientTransform="translate(3744.179 32831.896) scale(74.453 -74.453)" gradientUnits="userSpaceOnUse"><stop offset="0" stop-color="#ef7d00"></stop><stop offset="1" stop-color="#ef7d00" stop-opacity=".8"></stop></linearGradient></defs><path d="m487.157,202.731c.797-9.794,6.406-98.541,6.406-98.541.861-12.385,2.894-24.752,2.894-24.752h-.562s-4.025,12.084-9.535,24.752c0,0-36.489,85.303-42.959,98.541h-26.188c-2.434-11.234-15.755-98.541-15.755-98.541-2.172-13.255-2.851-24.752-2.851-24.752h-.303s-1.325,11.497-4.049,24.752c0,0-18.301,87.026-20.495,98.541h-46.628L374.535,2.876h54.384l12.926,94.394c1.516,11.799,2.067,22.161,2.067,22.161h.567s3.779-10.362,8.832-21.877L494.852,2.876h54.081l-7.943,199.855h-53.833Z" style="fill: #005596; stroke-width: 0px;"></path><polygon points="208.863 237.77 208.863 245.24 215.867 245.24 215.867 249.77 208.863 249.77 208.863 262.493 201.902 262.493 201.902 233.115 216.891 233.115 216.891 237.77 208.863 237.77" style="stroke-width: 0px;"></polygon><rect x="233.254" y="228.973" width="6.661" height="33.522" style="stroke-width: 0px;"></rect><path d="m266.397,243.192c-2.946,0-3.543,3.589-3.543,7.686,0,4.142.64,7.517,3.543,7.517,2.947,0,3.545-3.376,3.545-7.517,0-4.097-.598-7.686-3.545-7.686m0,19.727c-6.661,0-10.163-5.08-10.163-11.955s3.502-11.914,10.121-11.914c6.703,0,10.205,5.037,10.205,11.914s-3.502,11.955-10.163,11.955" style="stroke-width: 0px;"></path><path d="m316.838,262.494h-6.149l-3.288-12.47c-.384-1.535-.47-3.16-.47-3.16h-.042s-.086,1.625-.513,3.16l-3.374,12.47h-6.106l-6.32-23.018h6.62l2.775,13.281c.384,1.878.427,3.333.427,3.333h.085s.043-1.41.556-3.333l3.501-13.281h5.465l3.289,13.281c.384,1.623.555,3.333.555,3.333h.084s.044-1.71.428-3.376l2.947-13.238h5.85l-6.32,23.018Z" style="stroke-width: 0px;"></path><path d="m385.263,262.494c-.085-1.109-1.452-16.908-1.452-16.908-.171-1.837-.127-3.587-.127-3.587h-.087s-.342,1.706-.898,3.587c0,0-4.439,15.415-4.951,16.908h-3.46c-.471-1.237-4.953-16.908-4.953-16.908-.555-1.881-.897-3.587-.897-3.587h-.086s.086,1.706-.085,3.587c0,0-1.409,15.625-1.494,16.908h-5.723l3.117-29.378h6.748l4.569,16.437c.512,1.795.768,3.288.768,3.288h.084s.301-1.493.812-3.288l4.825-16.437h6.704l3.16,29.378h-6.576Z" style="stroke-width: 0px;"></path><path d="m417.301,242.979c-2.732,0-4.44,2.349-4.228,7.09l8.028-1.198c0-4.099-1.367-5.892-3.801-5.892m-3.801,10.334c.47,3.374,2.177,5.039,5.552,5.039,2.689,0,4.74-.599,5.979-1.237l1.494,4.142c-1.795.896-4.355,1.663-8.241,1.663-7.045,0-11.102-4.653-11.102-11.998,0-7.217,3.756-11.87,10.376-11.87,6.663,0,10.034,4.525,9.736,12.298l-13.793,1.964Z" style="stroke-width: 0px;"></path><path d="m451.427,262.836c-4.823,0-6.916-3.116-6.916-6.664v-12.381h-2.519v-4.314h2.519v-4.909l6.661-1.709v6.618h3.545v4.314h-3.545v11.871c0,1.751.642,2.689,2.136,2.689.554,0,.852-.086,1.409-.254v4.096c-.557.259-1.751.643-3.29.643" style="stroke-width: 0px;"></path><path d="m479.535,242.979c-2.734,0-4.44,2.349-4.228,7.09l8.027-1.198c0-4.099-1.368-5.892-3.8-5.892m-3.8,10.334c.469,3.374,2.178,5.039,5.553,5.039,2.685,0,4.737-.599,5.977-1.237l1.493,4.142c-1.794.896-4.357,1.663-8.242,1.663-7.046,0-11.101-4.653-11.101-11.998,0-7.217,3.757-11.87,10.376-11.87,6.662,0,10.034,4.525,9.734,12.298l-13.791,1.964Z" style="stroke-width: 0px;"></path><path d="m516.821,243.832c-1.622-.681-3.33-.64-4.44-.127v18.789h-6.661v-21.735c2.563-1.238,6.149-1.922,12.342-1.621l-1.24,4.694Z" style="stroke-width: 0px;"></path><path d="m569.1,262.92c-8.923,0-13.321-5.849-13.321-15.244,0-8.925,5.083-14.986,13.537-14.986,3.458,0,5.892.639,7.77,1.707l-2.005,4.27c-.941-.554-2.433-1.069-4.954-1.069-4.698,0-7.345,3.12-7.345,10.25,0,6.875,2.349,10.292,5.935,10.292,1.111,0,1.796-.215,2.18-.429v-8.325h-3.502v-4.145h9.992v15.971c-1.921,1.112-4.27,1.709-8.286,1.709" style="stroke-width: 0px;"></path><path d="m605.534,243.832c-1.62-.681-3.33-.64-4.438-.127v18.789h-6.663v-21.735c2.563-1.238,6.151-1.922,12.342-1.621l-1.24,4.694Z" style="stroke-width: 0px;"></path><path d="m630.266,243.192c-2.946,0-3.546,3.589-3.546,7.686,0,4.142.643,7.517,3.546,7.517,2.945,0,3.543-3.376,3.543-7.517,0-4.097-.598-7.686-3.543-7.686m0,19.727c-6.662,0-10.164-5.08-10.164-11.955s3.502-11.914,10.12-11.914c6.704,0,10.204,5.037,10.204,11.914s-3.5,11.955-10.16,11.955" style="stroke-width: 0px;"></path><path d="m666.273,262.92c-6.489,0-9.65-2.433-9.65-7.983v-15.459h6.662v15.929c0,1.665.895,3.032,3.161,3.032,1.193,0,2.047-.172,2.772-.557v-18.404h6.663v21.651c-2.135,1.064-5.296,1.791-9.608,1.791" style="stroke-width: 0px;"></path><path d="m701.597,242.978c-.897,0-1.495.13-2.05.343v15.245c.428.17,1.024.298,1.75.298,3.543,0,5.125-2.773,5.125-7.941s-1.282-7.944-4.825-7.944m1.28,19.814c-1.41,0-2.647-.172-3.33-.382v9.263h-6.662v-30.915c1.965-.981,4.697-1.708,8.798-1.708,6.873,0,11.315,4.058,11.315,11.784,0,7.389-4.142,11.958-10.121,11.958" style="stroke-width: 0px;"></path><path d="m139.329,102.072c0,23.927-19.377,43.319-43.302,43.319s-43.303-19.392-43.303-43.319,19.394-43.304,43.303-43.304,43.302,19.397,43.302,43.304m27.08,0c0-38.875-31.512-70.383-70.382-70.383S25.642,63.197,25.642,102.072s31.51,70.384,70.385,70.384,70.382-31.51,70.382-70.384" style="fill: #005596; stroke-width: 0px;"></path><g style="clip-path: url(#clippath);"><rect x="66.565" y="72.615" width="58.928" height="58.933" style="fill: url(#linear-gradient); stroke-width: 0px;"></rect></g><g style="clip-path: url(#clippath-1);"><rect y="60.581" width="75.732" height="118.888" style="fill: url(#linear-gradient-2); stroke-width: 0px;"></rect></g><g style="clip-path: url(#clippath-2);"><rect x="109.107" y="21.557" width="79.714" height="115.377" style="fill: url(#linear-gradient-3); stroke-width: 0px;"></rect></g><g><path d="m712.444,82.022h-53.736l-4.727,37.025h18.425l-6.615,43.552c-1.844.873-5.146,1.738-10.041,1.738-20.688,0-29.137-19.869-23.154-62.454,6.123-43.471,24.186-61.595,53.571-61.595,16.675,0,25.449,3.165,31.273,6.626l21.33-34.832c-13.324-7.771-29.69-12.083-54.142-12.083-62.741,0-101.191,44.023-109.164,101.014-8.505,60.436,11.45,102.754,78.483,102.754,28.499,0,46.091-4.313,60.448-12.085l12.654-90.27c-1.181-14.816-9.92-18.484-14.604-19.391" style="fill: #005596; stroke-width: 0px;"></path><path d="m330.059,40.864l5.278-37.538h-85.001s-20.32.044-23.533,20.19l-24.87,179.215h56.993l11.494-83.584h41.733l5.212-37.125h-41.732l5.79-41.158h48.636Z" style="fill: #005596; stroke-width: 0px;"></path></g></svg>