<svg width="376" height="82" viewBox="0 0 376 82" fill="none" xmlns="http://www.w3.org/2000/svg">
<path d="M92.249 35.144V4H101.911V17.0565H111.494V4H121.156V35.144H111.494V21.0489H101.911V35.144H92.249Z" fill="#E20100"/>
<path d="M136.69 35.7039C129.263 35.7039 123.553 30.5538 123.553 23.8051C123.553 17.0565 129.344 11.8278 136.928 11.8278C144.513 11.8278 150.066 16.978 150.066 23.7266C150.066 30.4752 144.277 35.7064 136.69 35.7064V35.7039ZM136.812 32.6285C138.808 32.6285 140.006 31.4303 140.006 29.353V18.2117C140.006 16.1344 138.808 14.8981 136.812 14.8981C134.816 14.8981 133.617 16.0964 133.617 18.1737V29.315C133.617 31.3923 134.816 32.6285 136.812 32.6285Z" fill="#E20100"/>
<path d="M152.305 12.3851H160.969V14.9007C162.446 12.945 164.883 11.8278 167.796 11.8278C172.708 11.8278 175.941 14.9412 175.941 19.6936V35.1466H167.036V18.5739C167.036 16.6968 165.919 15.4985 164.161 15.4985C162.403 15.4985 161.207 16.7348 161.207 18.5739V35.144H152.303V12.3851H152.305Z" fill="#E20100"/>
<path d="M178.061 23.9242C178.061 17.135 183.652 11.8253 190.879 11.8253C198.107 11.8253 202.978 16.8563 202.978 23.7646V24.8817H187.964V27.5163C187.964 30.4321 190 32.3473 193.114 32.3473C195.908 32.3473 198.345 30.7893 199.183 28.4334H202.738C201.499 32.8261 196.987 35.7013 191.358 35.7013C183.652 35.7013 178.061 30.7108 178.061 23.9216V23.9242ZM187.964 22.009H193.633V17.7759C193.633 16.0204 192.516 14.8221 190.798 14.8221C189.081 14.8221 187.964 16.0204 187.964 17.7759V22.009Z" fill="#E20100"/>
<path d="M200.701 38.9794C200.701 36.664 202.418 34.9059 204.734 34.9059C206.93 34.9059 208.607 36.4638 208.607 38.5411C208.607 39.2606 208.407 39.9395 208.009 40.4968C209.567 40.1371 210.885 38.7792 211.683 36.7045L201.661 12.3876H211.482L216.395 24.8463L221.307 12.3876H225.299L214.837 37.9027C213.2 41.8952 210.403 43.8914 206.89 43.8914C203.376 43.8914 200.701 41.8546 200.701 38.9794Z" fill="#E20100"/>
<path d="M233.365 12.3851L237.279 25.4011L240.911 12.3851H248.179L252.131 25.4821L255.686 12.3851H259.8L253.53 35.144H246.062L242.029 21.8089L238.274 35.144H231.047L224.06 12.3851H233.365Z" fill="#E20100"/>
<path d="M259.321 23.9242C259.321 17.135 264.912 11.8253 272.137 11.8253C279.361 11.8253 284.235 16.8563 284.235 23.7646V24.8817H269.221V27.5163C269.221 30.4321 271.258 32.3473 274.371 32.3473C277.165 32.3473 279.602 30.7893 280.441 28.4334H283.995C282.756 32.8261 278.244 35.7013 272.615 35.7013C264.909 35.7013 259.318 30.7108 259.318 23.9216L259.321 23.9242ZM269.223 22.009H274.893V17.7759C274.893 16.0204 273.776 14.8221 272.058 14.8221C270.34 14.8221 269.223 16.0204 269.223 17.7759V22.009Z" fill="#E20100"/>
<path d="M286.275 4H295.179V35.144H286.275V4Z" fill="#E20100"/>
<path d="M298.374 4H307.278V35.144H298.374V4Z" fill="#E20100"/>
<path d="M101.87 70.2577V43.1871H92.2465V39.1136H121.156V43.1871H111.532V70.2577H101.87Z" fill="#E20100"/>
<path d="M115.048 59.0379C115.048 52.2487 120.639 46.939 127.867 46.939C135.094 46.939 139.966 51.97 139.966 58.8783V59.9954H124.951V62.63C124.951 65.5458 126.988 67.461 130.101 67.461C132.895 67.461 135.332 65.903 136.171 63.5471H139.725C138.486 67.9398 133.975 70.815 128.346 70.815C120.639 70.815 115.048 65.8245 115.048 59.0353V59.0379ZM124.951 57.1202H130.62V52.8871C130.62 51.1315 129.503 49.9333 127.786 49.9333C126.068 49.9333 124.951 51.1315 124.951 52.8871V57.1202Z" fill="#E20100"/>
<path d="M141.324 58.9188C141.324 52.1296 146.793 46.9415 153.861 46.9415C160.209 46.9415 165.162 51.2936 165.481 57.1632H156.138V52.3323C156.138 50.8959 155.181 49.8978 153.782 49.8978C152.384 49.8978 151.386 50.8959 151.386 52.3323V62.1563C151.386 65.1506 153.341 67.0683 156.217 67.0683C159.33 67.0683 161.686 64.9125 162.205 61.718H165.519C164.761 67.1088 160.209 70.8226 154.299 70.8226C146.831 70.8226 141.321 65.751 141.321 58.9238L141.324 58.9188Z" fill="#E20100"/>
<path d="M176.222 70.2577H167.317V39.1136H176.222V49.7356C177.818 47.9396 180.095 46.9415 182.849 46.9415C187.72 46.9415 190.955 50.0548 190.955 54.8073V70.2602H182.051V53.6901C182.051 51.8129 180.934 50.6147 179.176 50.6147C177.418 50.6147 176.222 51.8509 176.222 53.6901V70.2602V70.2577Z" fill="#E20100"/>
<path d="M194.033 47.4988H202.697V50.0143C204.174 48.0586 206.611 46.9415 209.524 46.9415C214.436 46.9415 217.669 50.0549 217.669 54.8073V70.2602H208.764V53.6901C208.764 51.8129 207.647 50.6147 205.889 50.6147C204.131 50.6147 202.935 51.8509 202.935 53.6901V70.2602H194.031V47.5013L194.033 47.4988Z" fill="#E20100"/>
<path d="M232.924 70.8175C225.497 70.8175 219.786 65.6674 219.786 58.9188C219.786 52.1701 225.575 46.9415 233.162 46.9415C240.749 46.9415 246.3 52.0916 246.3 58.8402C246.3 65.5889 240.511 70.8201 232.924 70.8201V70.8175ZM233.046 67.7422C235.042 67.7422 236.24 66.5439 236.24 64.4666V53.3253C236.24 51.248 235.042 50.0118 233.046 50.0118C231.049 50.0118 229.851 51.21 229.851 53.2873V64.4286C229.851 66.5059 231.049 67.7422 233.046 67.7422Z" fill="#E20100"/>
<path d="M248.539 39.1136H257.444V70.2577H248.539V39.1136Z" fill="#E20100"/>
<path d="M272.815 70.8175C265.388 70.8175 259.678 65.6674 259.678 58.9188C259.678 52.1701 265.469 46.9415 273.054 46.9415C280.638 46.9415 286.191 52.0916 286.191 58.8402C286.191 65.5889 280.403 70.8201 272.815 70.8201V70.8175ZM272.937 67.7422C274.933 67.7422 276.132 66.5439 276.132 64.4666V53.3253C276.132 51.248 274.933 50.0118 272.937 50.0118C270.941 50.0118 269.743 51.21 269.743 53.2873V64.4286C269.743 66.5059 270.941 67.7422 272.937 67.7422Z" fill="#E20100"/>
<path d="M287.992 71.8942H297.335V72.9328C297.335 74.8885 298.652 76.1678 300.689 76.1678C302.726 76.1678 303.965 74.8505 303.965 72.8543V67.9018C302.566 69.5788 300.332 70.5364 297.776 70.5364C291.906 70.5364 287.473 65.5838 287.473 58.9568C287.473 52.3298 292.144 46.939 298.214 46.939C300.77 46.939 302.966 47.8965 304.362 49.5736V47.4963H312.628V69.0975C312.628 75.0076 307.638 79 300.291 79C293.902 79 288.793 76.0437 287.992 71.8917V71.8942ZM300.649 50.0929C298.771 50.0929 297.535 51.3317 297.535 53.2088V64.188C297.535 66.1437 298.733 67.3419 300.611 67.3419C302.488 67.3419 303.726 66.1032 303.726 64.226V53.2443C303.726 51.2886 302.528 50.0904 300.651 50.0904L300.649 50.0929Z" fill="#E20100"/>
<path d="M315.585 41.7078C315.585 39.3113 317.662 37.3556 320.256 37.3556C322.85 37.3556 324.927 39.3113 324.927 41.7078C324.927 44.1042 322.85 46.0599 320.256 46.0599C317.662 46.0599 315.585 44.1042 315.585 41.7078ZM315.823 47.4988H324.727V70.2577H315.823V47.4988Z" fill="#E20100"/>
<path d="M326.964 59.0379C326.964 52.2487 332.555 46.939 339.782 46.939C347.01 46.939 351.881 51.97 351.881 58.8783V59.9954H336.867V62.63C336.867 65.5458 338.903 67.461 342.017 67.461C344.811 67.461 347.248 65.903 348.087 63.5471H351.641C350.402 67.9398 345.89 70.815 340.261 70.815C332.555 70.815 326.964 65.8245 326.964 59.0353V59.0379ZM336.867 57.1202H342.536V52.8871C342.536 51.1315 341.419 49.9333 339.701 49.9333C337.984 49.9333 336.867 51.1315 336.867 52.8871V57.1202Z" fill="#E20100"/>
<path d="M352.479 63.5496H361.065V64.7479C361.065 66.7441 362.303 67.9423 364.419 67.9423C366.296 67.9423 367.413 66.9847 367.413 65.3077C367.413 63.9499 366.534 63.0303 364.978 62.7111L359.547 61.6319C355.276 60.7934 352.999 58.5185 352.999 55.0834C352.999 50.331 357.67 46.939 364.218 46.939C370.129 46.939 374.481 49.5736 375.198 53.566H366.853V52.687C366.853 50.8503 365.774 49.8117 363.937 49.8117C362.22 49.8117 361.102 50.7313 361.102 52.2082C361.102 53.5255 361.982 54.3234 363.897 54.7237L368.528 55.6433C373.199 56.5629 375.555 58.8377 375.555 62.511C375.555 67.5015 371.084 70.815 364.254 70.815C357.786 70.815 353.194 67.9803 352.474 63.5471L352.479 63.5496Z" fill="#E20100"/>
<path d="M40.9427 35.1491H61.4977V4H40.9427V26.6474H20.5575V4H0V35.1491H40.9427Z" fill="#E20100"/>
<path d="M61.5002 43.1871H40.9427V70.2577H61.5002V43.1871Z" fill="#E20100"/>
<path d="M20.5575 43.1871H0V70.2577H20.5575V43.1871Z" fill="#E20100"/>
</svg>
