<?xml version="1.0" encoding="utf-8"?>
<!-- Generator: Adobe Illustrator 25.2.0, SVG Export Plug-In . SVG Version: 6.00 Build 0)  -->
<svg version="1.1" id="Livello_1" xmlns="http://www.w3.org/2000/svg" xmlns:xlink="http://www.w3.org/1999/xlink" x="0px" y="0px"
	 viewBox="0 0 210 80" style="enable-background:new 0 0 210 80;" xml:space="preserve">
<style type="text/css">
	.st0{fill:#1D1D1B;}
	.st1{fill:#E20613;}
	.st2{fill-rule:evenodd;clip-rule:evenodd;fill:#1D1D1B;}
</style>
<g>
	<polygon class="st0" points="11.8,6.3 201.9,6.3 200.7,13.4 10.6,13.4 11.8,6.3 	"/>
	<polygon class="st0" points="1.2,66.6 191.4,66.6 190.1,73.7 0,73.7 1.2,66.6 	"/>
	<polygon class="st1" points="47.4,19.6 35.6,19.6 23,51.8 22.9,51.8 21.5,19.6 9.6,19.6 2.4,60.5 10,60.5 16,26.3 16.2,26.3
		17.2,60.5 25.2,60.5 38.5,26.3 38.6,26.3 32.6,60.5 40.2,60.5 47.4,19.6 	"/>
	<path class="st1" d="M57.7,52.1h14.4l1,8.4h8.8l-6.5-40.9h-9.4L44.9,60.5h8.6L57.7,52.1L57.7,52.1z M69,28.8h0.1l2,16.2h-9.9
		L69,28.8L69,28.8z"/>
	<path class="st1" d="M87.2,60.5H104c12.9,0,18.4-12.6,20-21.4c1.4-7.7,0.7-19.5-12.4-19.5H94.4L87.2,60.5L87.2,60.5z M101.1,26.6
		h7.8c3.5,0,8.8,1,6.6,13c-1.2,6.7-4.7,13.7-11.3,13.7h-7.9L101.1,26.6L101.1,26.6z"/>
	<path class="st1" d="M133.9,52.1h14.4l1,8.4h8.8l-6.5-40.9h-9.4l-21.1,40.9h8.6L133.9,52.1L133.9,52.1z M145.2,28.8h0.1l2,16.2
		h-9.9L145.2,28.8L145.2,28.8z"/>
	<path class="st1" d="M163.6,47.9c-0.9,5.1,0,13.7,14.2,13.7c3.4,0,15.5-1.1,17.7-13.4c1.3-7.3-3.2-9.6-8.3-11l-9.1-2.5
		c-1.6-0.4-3.9-1.1-3.4-4.3c0.7-3.7,4.6-4.9,7.6-4.9c7.1,0,7,4.3,6.9,6.2h7.8c0.8-5-0.9-13.2-12.9-13.2c-12.6,0-16.4,8-17.2,12.6
		c-1.6,9,4.2,10.5,10.2,12l4,1c3.9,1,6.7,1.9,6.2,5.1c-0.8,4.3-5.2,5.3-9.1,5.3c-7.1,0-7.4-4.3-7.1-6.6H163.6L163.6,47.9z"/>
	<path class="st2" d="M199.6,21c0,3,2.4,5.2,5.2,5.2c2.8,0,5.2-2.2,5.2-5.2c0-2.9-2.4-5.1-5.2-5.1C202,15.9,199.6,18.1,199.6,21
		L199.6,21z M200.6,21c0-2.5,1.8-4.4,4.3-4.4c2.4,0,4.2,1.9,4.2,4.4c0,2.5-1.8,4.4-4.2,4.4C202.4,25.5,200.6,23.6,200.6,21L200.6,21
		z M202.8,24.1h0.9v-2.6h1l1.6,2.6h1l-1.7-2.7c0.9-0.1,1.6-0.6,1.6-1.6c0-1.2-0.7-1.7-2.1-1.7h-2.3V24.1L202.8,24.1z M203.7,18.8
		h1.2c0.6,0,1.3,0.1,1.3,0.9c0,1-0.8,1-1.6,1h-1V18.8L203.7,18.8z"/>
	<rect x="63.2" y="66.6" class="st0" width="64.9" height="12.9"/>
	<rect x="73.8" y="0.4" class="st0" width="64.9" height="12.9"/>
</g>
</svg>
